PathFileType	4	(X/Y/Z)	D:\Share\Shared_Data\Ergonomics\Sit To Stand Pertubation\S2\Unperturbed.trc
DataRate	CameraRate	NumFrames	NumMarkers	Units	OrigDataRate	OrigDataStartFrame	OrigNumFrames	
100	100	9	18	m	100	4641	241
Frame#	Time	R_Toe			R_ASIS			R_Pelvis			V_Sacral			L_Pelvis			L_ASIS			Clavical			R_Acromium			L_Acromium			Sternum			Torso			R_Thigh_Med			R_Thigh_Lat			R_Thigh			R_Shank_Med			R_Shank_Lat			R_Shank			R_Heel			
		X1	Y1	Z1	X2	Y2	Z2	X3	Y3	Z3	X4	Y4	Z4	X5	Y5	Z5	X6	Y6	Z6	X7	Y7	Z7	X8	Y8	Z8	X9	Y9	Z9	X10	Y10	Z10	X11	Y11	Z11	X12	Y12	Z12	X13	Y13	Z13	X14	Y14	Z14	X15	Y15	Z15	X16	Y16	Z16	X17	Y17	Z17	X18	Y18	Z18	

4641	46.4	0.44245972	0.064134354	0.1508087	0.4307005	1.0332904	0.15322226	0.35419159	1.032354	0.19580658	0.21212331	1.0332235	0.034518616	0.30961221	1.0394745	-0.145035	0.40602359	1.0470878	-0.11967438	0.42569162	1.4646813	0.017363398	0.33251306	1.4818324	0.22747823	0.3046008	1.4924001	-0.16118684	0.47963892	1.3081583	0.0084512825	0.42971841	1.4274601	-0.099659386	0.37456635	0.49461923	0.09903933	0.36246988	0.51844775	0.18797787	0.44987622	0.68433441	0.16914606	0.30898318	0.10690861	0.10912865	0.28580472	0.10212919	0.19977454	0.32488159	0.37287411	0.21830182	0.20538173	0.062094841	0.15140488
4642	46.41	0.44243835	0.064159706	0.15080997	0.43223788	1.0332933	0.15310855	0.35578317	1.0322103	0.19582188	0.21381328	1.0322562	0.034538803	0.31102771	1.0389487	-0.14511017	0.40740939	1.0469727	-0.11980131	0.42457809	1.4647675	0.017302782	0.3309873	1.4813933	0.22733617	0.30338641	1.4920756	-0.16129343	0.4793822	1.3085221	0.008322875	0.42887549	1.4276469	-0.099752792	0.37281647	0.49474084	0.098773872	0.36086172	0.51864966	0.18763797	0.44963501	0.68394965	0.16855099	0.30895932	0.10690167	0.10914481	0.28569495	0.10209539	0.19978471	0.32340042	0.37309515	0.21820108	0.20535822	0.062044689	0.15139789
4643	46.42	0.44241196	0.06418914	0.15081497	0.4337757	1.0332344	0.15297992	0.35737296	1.0320015	0.19582408	0.21548848	1.0312295	0.034548023	0.3124198	1.038402	-0.14519633	0.40876968	1.0468187	-0.1199342	0.42347174	1.4647827	0.017215658	0.32947879	1.4808983	0.22716867	0.30217282	1.491691	-0.16142358	0.47911807	1.3088152	0.008170126	0.42803116	1.427767	-0.099874649	0.37094904	0.49484366	0.09850972	0.35912759	0.51883667	0.18731396	0.44927191	0.68351416	0.16792039	0.30893097	0.10689008	0.1091649	0.28557285	0.10205038	0.1998046	0.32182175	0.37331229	0.21812132	0.20532848	0.06198653	0.1513949
4644	46.43	0.44238052	0.064221817	0.1508246	0.43531863	1.0331061	0.15283565	0.35897647	1.0317241	0.19581276	0.2171467	1.0301445	0.034541046	0.31379205	1.0378346	-0.14529901	0.41010669	1.0466216	-0.12007613	0.42237863	1.4647228	0.017102526	0.32798987	1.4803459	0.22697594	0.300965	1.4912444	-0.16157404	0.4788475	1.309033	0.0079982533	0.42718848	1.4278142	-0.10002186	0.36898215	0.494922	0.098253433	0.35728281	0.51900116	0.18701041	0.44878668	0.68302502	0.1672742	0.30889142	0.10687022	0.10918822	0.28543826	0.10199419	0.19983249	0.32015692	0.37352173	0.21806113	0.20529335	0.061919533	0.15139606
4645	46.44	0.44234409	0.06425666	0.15083939	0.43686475	1.0329045	0.15267496	0.36060477	1.0313784	0.19578714	0.21878482	1.029007	0.03451564	0.3151467	1.0372478	-0.14542278	0.41142252	1.0463762	-0.12022986	0.42130429	1.4645854	0.016965008	0.32652344	1.4797356	0.22675909	0.29976886	1.4907355	-0.16174068	0.47857043	1.3091711	0.0078121533	0.42634967	1.4277836	-0.10019055	0.36693488	0.49497302	0.098009644	0.35534909	0.51913739	0.1867328	0.44818668	0.68248462	0.16663034	0.30883441	0.10683952	0.10921468	0.28529037	0.10192679	0.19986671	0.3184209	0.37371951	0.21801994	0.205254	0.061842201	0.15140041
4646	46.45	0.44230286	0.064292488	0.15085962	0.43840573	1.0326283	0.15249727	0.36225436	1.0309677	0.19574593	0.22039761	1.0278274	0.034470928	0.31648416	1.0366426	-0.14557019	0.41271912	1.0460811	-0.1203972	0.42025256	1.4643718	0.016806025	0.32508218	1.4790677	0.22652058	0.29858945	1.4901648	-0.16191907	0.47828625	1.3092294	0.0076157007	0.42551584	1.4276718	-0.10037669	0.36482684	0.49499576	0.097779922	0.35335522	0.51924109	0.1864868	0.44749014	0.68190057	0.16600294	0.30875702	0.10679743	0.10924449	0.28512817	0.10184838	0.19990552	0.31663324	0.37390195	0.21799818	0.20521158	0.061753464	0.15140656
4647	46.46	0.44225708	0.064328117	0.15088554	0.43992905	1.032281	0.15230273	0.36390616	1.0304972	0.19568724	0.22197688	1.0266215	0.034406105	0.31780276	1.036022	-0.14574155	0.41399808	1.0457358	-0.12057889	0.41922516	1.4640863	0.016629158	0.32366794	1.4783447	0.22626401	0.29742987	1.4895312	-0.16210466	0.47799484	1.3092106	0.0074116874	0.42468784	1.4274791	-0.10057667	0.36268042	0.49499042	0.097563675	0.35133743	0.51930994	0.18627724	0.44672699	0.68128357	0.16540216	0.30866052	0.10674545	0.10927783	0.28495132	0.10175986	0.19994695	0.31481955	0.37406543	0.21799654	0.20516676	0.061653549	0.15141296
4648	46.47	0.44220743	0.064362617	0.15091704	0.44141925	1.0318701	0.1520932	0.36553372	1.0299769	0.19560905	0.22351176	1.0254102	0.034320229	0.31909912	1.0353904	-0.14593538	0.41526025	1.0453441	-0.12077442	0.41822269	1.4637368	0.016437719	0.3222811	1.4775703	0.22599321	0.29629108	1.4888346	-0.16229213	0.4776973	1.3091212	0.0072024894	0.42386703	1.4272097	-0.10078747	0.36052393	0.49495795	0.097359932	0.3493392	0.51934283	0.18610739	0.44593518	0.68064673	0.16483559	0.30854919	0.10668623	0.1093147	0.28476114	0.10166321	0.19998886	0.31301282	0.3742067	0.21801486	0.20511987	0.061544334	0.15141792
4649	46.48	0.44215485	0.064395157	0.15095361	0.44285956	1.0314075	0.15187251	0.36711267	1.0294218	0.19551068	0.22498962	1.0242181	0.034212139	0.32036929	1.0347555	-0.14614909	0.4165058	1.0449121	-0.12098181	0.41724637	1.4633348	0.016234856	0.32092014	1.4767507	0.22571074	0.29517279	1.4880762	-0.16247585	0.4773967	1.3089718	0.0069909244	0.42305661	1.4268729	-0.10100658	0.35839438	0.49489932	0.097168495	0.34741064	0.51934058	0.18597841	0.4451553	0.68000232	0.16430975	0.30842923	0.10662301	0.10935469	0.28456116	0.10156136	0.20002924	0.31125467	0.37432303	0.21805247	0.20507111	0.06142905	0.15141975
